# xmcd
# Track frame offsets:
# 150
# 12900
# 26575
# 41950
# 54125
# 67550
# 81950
# 96025
# 109325
# 123875
# 134800
#
# Disc length: 1947 seconds
# Revision: 0
# Processed by: cddbd v1.4PL0 Copyright (c) Steve Scherf et al.
# Submitted via: VisiTrax 2.9.5.180 - For more info visit www.synapsa.com
#
DISCID=8b07990b
DTITLE=Pamela Anton - Pamela Anton
DYEAR=1900
DGENRE=
TTITLE0=Somewhere between hello and goodbye
TTITLE1=Breaking new ground
TTITLE2=I'm not over you
TTITLE3=Mama said
TTITLE4=Asking for the moon
TTITLE5=Reading my heart
TTITLE6=The blues ain't working on me
TTITLE7=Baby, you're something
TTITLE8=Ain't that love
TTITLE9=The truth about true love
TTITLE10=Right here where you dropped it
EXTD=
EXTT0=
EXTT1=
EXTT2=
EXTT3=
EXTT4=
EXTT5=
EXTT6=
EXTT7=
EXTT8=
EXTT9=
EXTT10=
PLAYORDER=
